# xmcd
#
# Track frame offsets: 
#        150
#        4337
#        29986
#        57179
#        85037
#        129740
#        149582
#        187884
#
# Disc length: 2806 seconds
#
# Revision: 0
# Processed by: cddbd v1.5.2PL0 Copyright (c) Steve Scherf et al.
# Submitted via: ExactAudioCopy v0.99pb4
#
DISCID=700af408
DTITLE=Joe Bonamassa - Live Vancouver 2008-08-29
DYEAR=2008
DGENRE=Blues
TTITLE0=Intro
TTITLE1=Spike driver Blues
TTITLE2=Bridge to better days
TTITLE3=So many roads
TTITLE4=India and Mountain time
TTITLE5=Another kind of love
TTITLE6=Sloe Gin
TTITLE7=High water everywhere
EXTD=
EXTT0=
EXTT1=
EXTT2=
EXTT3=
EXTT4=
EXTT5=
EXTT6=
EXTT7=
PLAYORDER=
